<?xml version="1.0" encoding="UTF-8" standalone="no"?><svg xmlns="http://www.w3.org/2000/svg" id="icon" width="512" height="512" viewBox="0 0 512 512" preserveAspectRatio="xMidYMid meet" rendering="crispEdges"><rect id="4-1" x="96" y="0" width="32" height="32" shape-rendering="crispEdges" style="fill:#4a3235;opacity:255;"></rect><rect id="5-1" x="128" y="0" width="32" height="32" shape-rendering="crispEdges" style="fill:#594750;opacity:255;"></rect><rect id="6-1" x="160" y="0" width="32" height="32" shape-rendering="crispEdges" style="fill:#3e2b2b;opacity:255;"></rect><rect id="7-1" x="192" y="0" width="32" height="32" shape-rendering="crispEdges" style="fill:#3e2b2b;opacity:255;"></rect><rect id="8-1" x="224" y="0" width="32" height="32" shape-rendering="crispEdges" style="fill:#3e2b2b;opacity:255;"></rect><rect id="9-1" x="256" y="0" width="32" height="32" shape-rendering="crispEdges" style="fill:#4a3235;opacity:255;"></rect><rect id="10-1" x="288" y="0" width="32" height="32" shape-rendering="crispEdges" style="fill:#3e2b2b;opacity:255;"></rect><rect id="11-1" x="320" y="0" width="32" height="32" shape-rendering="crispEdges" style="fill:#3e2b2b;opacity:255;"></rect><rect id="12-1" x="352" y="0" width="32" height="32" shape-rendering="crispEdges" style="fill:#594750;opacity:255;"></rect><rect id="13-1" x="384" y="0" width="32" height="32" shape-rendering="crispEdges" style="fill:#4a3235;opacity:255;"></rect><rect id="16-1" x="480" y="0" width="32" height="32" shape-rendering="crispEdges" style="fill:#727c53;opacity:255;"></rect><rect id="3-2" x="64" y="32" width="32" height="32" shape-rendering="crispEdges" style="fill:#594750;opacity:255;"></rect><rect id="4-2" x="96" y="32" width="32" height="32" shape-rendering="crispEdges" style="fill:#4a3235;opacity:255;"></rect><rect id="5-2" x="128" y="32" width="32" height="32" shape-rendering="crispEdges" style="fill:#4a3235;opacity:255;"></rect><rect id="6-2" x="160" y="32" width="32" height="32" shape-rendering="crispEdges" style="fill:#4a3235;opacity:255;"></rect><rect id="7-2" x="192" y="32" width="32" height="32" shape-rendering="crispEdges" style="fill:#594750;opacity:255;"></rect><rect id="8-2" x="224" y="32" width="32" height="32" shape-rendering="crispEdges" style="fill:#594750;opacity:255;"></rect><rect id="9-2" x="256" y="32" width="32" height="32" shape-rendering="crispEdges" style="fill:#594750;opacity:255;"></rect><rect id="10-2" x="288" y="32" width="32" height="32" shape-rendering="crispEdges" style="fill:#4a3235;opacity:255;"></rect><rect id="11-2" x="320" y="32" width="32" height="32" shape-rendering="crispEdges" style="fill:#594750;opacity:255;"></rect><rect id="12-2" x="352" y="32" width="32" height="32" shape-rendering="crispEdges" style="fill:#4a3235;opacity:255;"></rect><rect id="13-2" x="384" y="32" width="32" height="32" shape-rendering="crispEdges" style="fill:#4a3235;opacity:255;"></rect><rect id="14-2" x="416" y="32" width="32" height="32" shape-rendering="crispEdges" style="fill:#594750;opacity:255;"></rect><rect id="15-2" x="448" y="32" width="32" height="32" shape-rendering="crispEdges" style="fill:#727c53;opacity:255;"></rect><rect id="16-2" x="480" y="32" width="32" height="32" shape-rendering="crispEdges" style="fill:#8e9a63;opacity:255;"></rect><rect id="2-3" x="32" y="64" width="32" height="32" shape-rendering="crispEdges" style="fill:#2f2121;opacity:255;"></rect><rect id="3-3" x="64" y="64" width="32" height="32" shape-rendering="crispEdges" style="fill:#3e2b2b;opacity:255;"></rect><rect id="4-3" x="96" y="64" width="32" height="32" shape-rendering="crispEdges" style="fill:#3e2b2b;opacity:255;"></rect><rect id="5-3" x="128" y="64" width="32" height="32" shape-rendering="crispEdges" style="fill:#4a3235;opacity:255;"></rect><rect id="6-3" x="160" y="64" width="32" height="32" shape-rendering="crispEdges" style="fill:#2f2121;opacity:255;"></rect><rect id="7-3" x="192" y="64" width="32" height="32" shape-rendering="crispEdges" style="fill:#3e2b2b;opacity:255;"></rect><rect id="8-3" x="224" y="64" width="32" height="32" shape-rendering="crispEdges" style="fill:#4a3235;opacity:255;"></rect><rect id="9-3" x="256" y="64" width="32" height="32" shape-rendering="crispEdges" style="fill:#4a3235;opacity:255;"></rect><rect id="10-3" x="288" y="64" width="32" height="32" shape-rendering="crispEdges" style="fill:#3e2b2b;opacity:255;"></rect><rect id="11-3" x="320" y="64" width="32" height="32" shape-rendering="crispEdges" style="fill:#2f2121;opacity:255;"></rect><rect id="12-3" x="352" y="64" width="32" height="32" shape-rendering="crispEdges" style="fill:#3e2b2b;opacity:255;"></rect><rect id="13-3" x="384" y="64" width="32" height="32" shape-rendering="crispEdges" style="fill:#4a3235;opacity:255;"></rect><rect id="14-3" x="416" y="64" width="32" height="32" shape-rendering="crispEdges" style="fill:#3e2b2b;opacity:255;"></rect><rect id="15-3" x="448" y="64" width="32" height="32" shape-rendering="crispEdges" style="fill:#3e2b2b;opacity:255;"></rect><rect id="16-3" x="480" y="64" width="32" height="32" shape-rendering="crispEdges" style="fill:#727c53;opacity:255;"></rect><rect id="1-4" x="0" y="96" width="32" height="32" shape-rendering="crispEdges" style="fill:#2f2121;opacity:255;"></rect><rect id="2-4" x="32" y="96" width="32" height="32" shape-rendering="crispEdges" style="fill:#3e2b2b;opacity:255;"></rect><rect id="3-4" x="64" y="96" width="32" height="32" shape-rendering="crispEdges" style="fill:#2f2121;opacity:255;"></rect><rect id="4-4" x="96" y="96" width="32" height="32" shape-rendering="crispEdges" style="fill:#3e2b2b;opacity:255;"></rect><rect id="5-4" x="128" y="96" width="32" height="32" shape-rendering="crispEdges" style="fill:#3e2b2b;opacity:255;"></rect><rect id="6-4" x="160" y="96" width="32" height="32" shape-rendering="crispEdges" style="fill:#3e2b2b;opacity:255;"></rect><rect id="7-4" x="192" y="96" width="32" height="32" shape-rendering="crispEdges" style="fill:#3e2b2b;opacity:255;"></rect><rect id="8-4" x="224" y="96" width="32" height="32" shape-rendering="crispEdges" style="fill:#3e2b2b;opacity:255;"></rect><rect id="9-4" x="256" y="96" width="32" height="32" shape-rendering="crispEdges" style="fill:#3e2b2b;opacity:255;"></rect><rect id="10-4" x="288" y="96" width="32" height="32" shape-rendering="crispEdges" style="fill:#3e2b2b;opacity:255;"></rect><rect id="11-4" x="320" y="96" width="32" height="32" shape-rendering="crispEdges" style="fill:#3e2b2b;opacity:255;"></rect><rect id="12-4" x="352" y="96" width="32" height="32" shape-rendering="crispEdges" style="fill:#3e2b2b;opacity:255;"></rect><rect id="13-4" x="384" y="96" width="32" height="32" shape-rendering="crispEdges" style="fill:#3e2b2b;opacity:255;"></rect><rect id="14-4" x="416" y="96" width="32" height="32" shape-rendering="crispEdges" style="fill:#2f2121;opacity:255;"></rect><rect id="15-4" x="448" y="96" width="32" height="32" shape-rendering="crispEdges" style="fill:#3e2b2b;opacity:255;"></rect><rect id="16-4" x="480" y="96" width="32" height="32" shape-rendering="crispEdges" style="fill:#4a3235;opacity:255;"></rect><rect id="1-5" x="0" y="128" width="32" height="32" shape-rendering="crispEdges" style="fill:#3e2b2b;opacity:255;"></rect><rect id="2-5" x="32" y="128" width="32" height="32" shape-rendering="crispEdges" style="fill:#2f2121;opacity:255;"></rect><rect id="3-5" x="64" y="128" width="32" height="32" shape-rendering="crispEdges" style="fill:#3e2b2b;opacity:255;"></rect><rect id="4-5" x="96" y="128" width="32" height="32" shape-rendering="crispEdges" style="fill:#3e2b2b;opacity:255;"></rect><rect id="5-5" x="128" y="128" width="32" height="32" shape-rendering="crispEdges" style="fill:#3e2b2b;opacity:255;"></rect><rect id="6-5" x="160" y="128" width="32" height="32" shape-rendering="crispEdges" style="fill:#3e2b2b;opacity:255;"></rect><rect id="7-5" x="192" y="128" width="32" height="32" shape-rendering="crispEdges" style="fill:#3e2b2b;opacity:255;"></rect><rect id="8-5" x="224" y="128" width="32" height="32" shape-rendering="crispEdges" style="fill:#3e2b2b;opacity:255;"></rect><rect id="9-5" x="256" y="128" width="32" height="32" shape-rendering="crispEdges" style="fill:#3e2b2b;opacity:255;"></rect><rect id="10-5" x="288" y="128" width="32" height="32" shape-rendering="crispEdges" style="fill:#3e2b2b;opacity:255;"></rect><rect id="11-5" x="320" y="128" width="32" height="32" shape-rendering="crispEdges" style="fill:#3e2b2b;opacity:255;"></rect><rect id="12-5" x="352" y="128" width="32" height="32" shape-rendering="crispEdges" style="fill:#3e2b2b;opacity:255;"></rect><rect id="13-5" x="384" y="128" width="32" height="32" shape-rendering="crispEdges" style="fill:#3e2b2b;opacity:255;"></rect><rect id="14-5" x="416" y="128" width="32" height="32" shape-rendering="crispEdges" style="fill:#3e2b2b;opacity:255;"></rect><rect id="15-5" x="448" y="128" width="32" height="32" shape-rendering="crispEdges" style="fill:#2f2121;opacity:255;"></rect><rect id="16-5" x="480" y="128" width="32" height="32" shape-rendering="crispEdges" style="fill:#181515;opacity:255;"></rect><rect id="1-6" x="0" y="160" width="32" height="32" shape-rendering="crispEdges" style="fill:#2f2121;opacity:255;"></rect><rect id="2-6" x="32" y="160" width="32" height="32" shape-rendering="crispEdges" style="fill:#3e2b2b;opacity:255;"></rect><rect id="3-6" x="64" y="160" width="32" height="32" shape-rendering="crispEdges" style="fill:#4a3235;opacity:255;"></rect><rect id="4-6" x="96" y="160" width="32" height="32" shape-rendering="crispEdges" style="fill:#3e2b2b;opacity:255;"></rect><rect id="5-6" x="128" y="160" width="32" height="32" shape-rendering="crispEdges" style="fill:#2f2121;opacity:255;"></rect><rect id="6-6" x="160" y="160" width="32" height="32" shape-rendering="crispEdges" style="fill:#3e2b2b;opacity:255;"></rect><rect id="7-6" x="192" y="160" width="32" height="32" shape-rendering="crispEdges" style="fill:#3e2b2b;opacity:255;"></rect><rect id="8-6" x="224" y="160" width="32" height="32" shape-rendering="crispEdges" style="fill:#3e2b2b;opacity:255;"></rect><rect id="9-6" x="256" y="160" width="32" height="32" shape-rendering="crispEdges" style="fill:#3e2b2b;opacity:255;"></rect><rect id="10-6" x="288" y="160" width="32" height="32" shape-rendering="crispEdges" style="fill:#2f2121;opacity:255;"></rect><rect id="11-6" x="320" y="160" width="32" height="32" shape-rendering="crispEdges" style="fill:#3e2b2b;opacity:255;"></rect><rect id="12-6" x="352" y="160" width="32" height="32" shape-rendering="crispEdges" style="fill:#3e2b2b;opacity:255;"></rect><rect id="13-6" x="384" y="160" width="32" height="32" shape-rendering="crispEdges" style="fill:#3e2b2b;opacity:255;"></rect><rect id="14-6" x="416" y="160" width="32" height="32" shape-rendering="crispEdges" style="fill:#4a3235;opacity:255;"></rect><rect id="15-6" x="448" y="160" width="32" height="32" shape-rendering="crispEdges" style="fill:#3e2b2b;opacity:255;"></rect><rect id="16-6" x="480" y="160" width="32" height="32" shape-rendering="crispEdges" style="fill:#2f2121;opacity:255;"></rect><rect id="1-7" x="0" y="192" width="32" height="32" shape-rendering="crispEdges" style="fill:#3e2b2b;opacity:255;"></rect><rect id="2-7" x="32" y="192" width="32" height="32" shape-rendering="crispEdges" style="fill:#4a3235;opacity:255;"></rect><rect id="3-7" x="64" y="192" width="32" height="32" shape-rendering="crispEdges" style="fill:#2f2121;opacity:255;"></rect><rect id="4-7" x="96" y="192" width="32" height="32" shape-rendering="crispEdges" style="fill:#2f2121;opacity:255;"></rect><rect id="5-7" x="128" y="192" width="32" height="32" shape-rendering="crispEdges" style="fill:#3e2b2b;opacity:255;"></rect><rect id="6-7" x="160" y="192" width="32" height="32" shape-rendering="crispEdges" style="fill:#4a3235;opacity:255;"></rect><rect id="7-7" x="192" y="192" width="32" height="32" shape-rendering="crispEdges" style="fill:#2f2121;opacity:255;"></rect><rect id="8-7" x="224" y="192" width="32" height="32" shape-rendering="crispEdges" style="fill:#4a3235;opacity:255;"></rect><rect id="9-7" x="256" y="192" width="32" height="32" shape-rendering="crispEdges" style="fill:#4a3235;opacity:255;"></rect><rect id="10-7" x="288" y="192" width="32" height="32" shape-rendering="crispEdges" style="fill:#2f2121;opacity:255;"></rect><rect id="11-7" x="320" y="192" width="32" height="32" shape-rendering="crispEdges" style="fill:#3e2b2b;opacity:255;"></rect><rect id="12-7" x="352" y="192" width="32" height="32" shape-rendering="crispEdges" style="fill:#4a3235;opacity:255;"></rect><rect id="13-7" x="384" y="192" width="32" height="32" shape-rendering="crispEdges" style="fill:#2f2121;opacity:255;"></rect><rect id="14-7" x="416" y="192" width="32" height="32" shape-rendering="crispEdges" style="fill:#3e2b2b;opacity:255;"></rect><rect id="15-7" x="448" y="192" width="32" height="32" shape-rendering="crispEdges" style="fill:#4a3235;opacity:255;"></rect><rect id="16-7" x="480" y="192" width="32" height="32" shape-rendering="crispEdges" style="fill:#3e2b2b;opacity:255;"></rect><rect id="1-8" x="0" y="224" width="32" height="32" shape-rendering="crispEdges" style="fill:#2f2121;opacity:255;"></rect><rect id="2-8" x="32" y="224" width="32" height="32" shape-rendering="crispEdges" style="fill:#181515;opacity:255;"></rect><rect id="3-8" x="64" y="224" width="32" height="32" shape-rendering="crispEdges" style="fill:#181515;opacity:255;"></rect><rect id="4-8" x="96" y="224" width="32" height="32" shape-rendering="crispEdges" style="fill:#3e2b2b;opacity:255;"></rect><rect id="5-8" x="128" y="224" width="32" height="32" shape-rendering="crispEdges" style="fill:#727c53;opacity:255;"></rect><rect id="6-8" x="160" y="224" width="32" height="32" shape-rendering="crispEdges" style="fill:#727c53;opacity:255;"></rect><rect id="7-8" x="192" y="224" width="32" height="32" shape-rendering="crispEdges" style="fill:#2f2121;opacity:255;"></rect><rect id="8-8" x="224" y="224" width="32" height="32" shape-rendering="crispEdges" style="fill:#2f2121;opacity:255;"></rect><rect id="9-8" x="256" y="224" width="32" height="32" shape-rendering="crispEdges" style="fill:#4a3235;opacity:255;"></rect><rect id="10-8" x="288" y="224" width="32" height="32" shape-rendering="crispEdges" style="fill:#2f2121;opacity:255;"></rect><rect id="11-8" x="320" y="224" width="32" height="32" shape-rendering="crispEdges" style="fill:#727c53;opacity:255;"></rect><rect id="12-8" x="352" y="224" width="32" height="32" shape-rendering="crispEdges" style="fill:#727c53;opacity:255;"></rect><rect id="13-8" x="384" y="224" width="32" height="32" shape-rendering="crispEdges" style="fill:#3e2b2b;opacity:255;"></rect><rect id="14-8" x="416" y="224" width="32" height="32" shape-rendering="crispEdges" style="fill:#2f2121;opacity:255;"></rect><rect id="15-8" x="448" y="224" width="32" height="32" shape-rendering="crispEdges" style="fill:#181515;opacity:255;"></rect><rect id="16-8" x="480" y="224" width="32" height="32" shape-rendering="crispEdges" style="fill:#2f2121;opacity:255;"></rect><rect id="1-9" x="0" y="256" width="32" height="32" shape-rendering="crispEdges" style="fill:#181515;opacity:255;"></rect><rect id="2-9" x="32" y="256" width="32" height="32" shape-rendering="crispEdges" style="fill:#181515;opacity:255;"></rect><rect id="3-9" x="64" y="256" width="32" height="32" shape-rendering="crispEdges" style="fill:#2f2121;opacity:255;"></rect><rect id="4-9" x="96" y="256" width="32" height="32" shape-rendering="crispEdges" style="fill:#727c53;opacity:255;"></rect><rect id="5-9" x="128" y="256" width="32" height="32" shape-rendering="crispEdges" style="fill:#8e9a63;opacity:255;"></rect><rect id="6-9" x="160" y="256" width="32" height="32" shape-rendering="crispEdges" style="fill:#8e9a63;opacity:255;"></rect><rect id="7-9" x="192" y="256" width="32" height="32" shape-rendering="crispEdges" style="fill:#727c53;opacity:255;"></rect><rect id="8-9" x="224" y="256" width="32" height="32" shape-rendering="crispEdges" style="fill:#181515;opacity:255;"></rect><rect id="9-9" x="256" y="256" width="32" height="32" shape-rendering="crispEdges" style="fill:#3e2b2b;opacity:255;"></rect><rect id="10-9" x="288" y="256" width="32" height="32" shape-rendering="crispEdges" style="fill:#727c53;opacity:255;"></rect><rect id="11-9" x="320" y="256" width="32" height="32" shape-rendering="crispEdges" style="fill:#8e9a63;opacity:255;"></rect><rect id="12-9" x="352" y="256" width="32" height="32" shape-rendering="crispEdges" style="fill:#8e9a63;opacity:255;"></rect><rect id="13-9" x="384" y="256" width="32" height="32" shape-rendering="crispEdges" style="fill:#727c53;opacity:255;"></rect><rect id="14-9" x="416" y="256" width="32" height="32" shape-rendering="crispEdges" style="fill:#2f2121;opacity:255;"></rect><rect id="15-9" x="448" y="256" width="32" height="32" shape-rendering="crispEdges" style="fill:#181515;opacity:255;"></rect><rect id="16-9" x="480" y="256" width="32" height="32" shape-rendering="crispEdges" style="fill:#181515;opacity:255;"></rect><rect id="1-10" x="0" y="288" width="32" height="32" shape-rendering="crispEdges" style="fill:#2f2121;opacity:255;"></rect><rect id="2-10" x="32" y="288" width="32" height="32" shape-rendering="crispEdges" style="fill:#2f2121;opacity:255;"></rect><rect id="3-10" x="64" y="288" width="32" height="32" shape-rendering="crispEdges" style="fill:#181515;opacity:255;"></rect><rect id="4-10" x="96" y="288" width="32" height="32" shape-rendering="crispEdges" style="fill:#727c53;opacity:255;"></rect><rect id="5-10" x="128" y="288" width="32" height="32" shape-rendering="crispEdges" style="fill:#8e9a63;opacity:255;"></rect><rect id="6-10" x="160" y="288" width="32" height="32" shape-rendering="crispEdges" style="fill:#8e9a63;opacity:255;"></rect><rect id="7-10" x="192" y="288" width="32" height="32" shape-rendering="crispEdges" style="fill:#727c53;opacity:255;"></rect><rect id="8-10" x="224" y="288" width="32" height="32" shape-rendering="crispEdges" style="fill:#181515;opacity:255;"></rect><rect id="9-10" x="256" y="288" width="32" height="32" shape-rendering="crispEdges" style="fill:#181515;opacity:255;"></rect><rect id="10-10" x="288" y="288" width="32" height="32" shape-rendering="crispEdges" style="fill:#727c53;opacity:255;"></rect><rect id="11-10" x="320" y="288" width="32" height="32" shape-rendering="crispEdges" style="fill:#8e9a63;opacity:255;"></rect><rect id="12-10" x="352" y="288" width="32" height="32" shape-rendering="crispEdges" style="fill:#8e9a63;opacity:255;"></rect><rect id="13-10" x="384" y="288" width="32" height="32" shape-rendering="crispEdges" style="fill:#727c53;opacity:255;"></rect><rect id="14-10" x="416" y="288" width="32" height="32" shape-rendering="crispEdges" style="fill:#181515;opacity:255;"></rect><rect id="15-10" x="448" y="288" width="32" height="32" shape-rendering="crispEdges" style="fill:#181515;opacity:255;"></rect><rect id="16-10" x="480" y="288" width="32" height="32" shape-rendering="crispEdges" style="fill:#2f2121;opacity:255;"></rect><rect id="1-11" x="0" y="320" width="32" height="32" shape-rendering="crispEdges" style="fill:#2f2121;opacity:255;"></rect><rect id="2-11" x="32" y="320" width="32" height="32" shape-rendering="crispEdges" style="fill:#181515;opacity:255;"></rect><rect id="3-11" x="64" y="320" width="32" height="32" shape-rendering="crispEdges" style="fill:#2f2121;opacity:255;"></rect><rect id="4-11" x="96" y="320" width="32" height="32" shape-rendering="crispEdges" style="fill:#2f2121;opacity:255;"></rect><rect id="5-11" x="128" y="320" width="32" height="32" shape-rendering="crispEdges" style="fill:#727c53;opacity:255;"></rect><rect id="6-11" x="160" y="320" width="32" height="32" shape-rendering="crispEdges" style="fill:#727c53;opacity:255;"></rect><rect id="7-11" x="192" y="320" width="32" height="32" shape-rendering="crispEdges" style="fill:#2f2121;opacity:255;"></rect><rect id="8-11" x="224" y="320" width="32" height="32" shape-rendering="crispEdges" style="fill:#181515;opacity:255;"></rect><rect id="9-11" x="256" y="320" width="32" height="32" shape-rendering="crispEdges" style="fill:#2f2121;opacity:255;"></rect><rect id="10-11" x="288" y="320" width="32" height="32" shape-rendering="crispEdges" style="fill:#181515;opacity:255;"></rect><rect id="11-11" x="320" y="320" width="32" height="32" shape-rendering="crispEdges" style="fill:#727c53;opacity:255;"></rect><rect id="12-11" x="352" y="320" width="32" height="32" shape-rendering="crispEdges" style="fill:#727c53;opacity:255;"></rect><rect id="13-11" x="384" y="320" width="32" height="32" shape-rendering="crispEdges" style="fill:#181515;opacity:255;"></rect><rect id="14-11" x="416" y="320" width="32" height="32" shape-rendering="crispEdges" style="fill:#2f2121;opacity:255;"></rect><rect id="15-11" x="448" y="320" width="32" height="32" shape-rendering="crispEdges" style="fill:#181515;opacity:255;"></rect><rect id="16-11" x="480" y="320" width="32" height="32" shape-rendering="crispEdges" style="fill:#2f2121;opacity:255;"></rect><rect id="2-12" x="32" y="352" width="32" height="32" shape-rendering="crispEdges" style="fill:#181515;opacity:255;"></rect><rect id="3-12" x="64" y="352" width="32" height="32" shape-rendering="crispEdges" style="fill:#2f2121;opacity:255;"></rect><rect id="4-12" x="96" y="352" width="32" height="32" shape-rendering="crispEdges" style="fill:#181515;opacity:255;"></rect><rect id="5-12" x="128" y="352" width="32" height="32" shape-rendering="crispEdges" style="fill:#181515;opacity:255;"></rect><rect id="6-12" x="160" y="352" width="32" height="32" shape-rendering="crispEdges" style="fill:#3e2b2b;opacity:255;"></rect><rect id="7-12" x="192" y="352" width="32" height="32" shape-rendering="crispEdges" style="fill:#181515;opacity:255;"></rect><rect id="8-12" x="224" y="352" width="32" height="32" shape-rendering="crispEdges" style="fill:#181515;opacity:255;"></rect><rect id="9-12" x="256" y="352" width="32" height="32" shape-rendering="crispEdges" style="fill:#2f2121;opacity:255;"></rect><rect id="10-12" x="288" y="352" width="32" height="32" shape-rendering="crispEdges" style="fill:#2f2121;opacity:255;"></rect><rect id="11-12" x="320" y="352" width="32" height="32" shape-rendering="crispEdges" style="fill:#181515;opacity:255;"></rect><rect id="12-12" x="352" y="352" width="32" height="32" shape-rendering="crispEdges" style="fill:#2f2121;opacity:255;"></rect><rect id="13-12" x="384" y="352" width="32" height="32" shape-rendering="crispEdges" style="fill:#181515;opacity:255;"></rect><rect id="14-12" x="416" y="352" width="32" height="32" shape-rendering="crispEdges" style="fill:#2f2121;opacity:255;"></rect><rect id="15-12" x="448" y="352" width="32" height="32" shape-rendering="crispEdges" style="fill:#181515;opacity:255;"></rect><rect id="2-13" x="32" y="384" width="32" height="32" shape-rendering="crispEdges" style="fill:#2f2121;opacity:255;"></rect><rect id="3-13" x="64" y="384" width="32" height="32" shape-rendering="crispEdges" style="fill:#181515;opacity:255;"></rect><rect id="4-13" x="96" y="384" width="32" height="32" shape-rendering="crispEdges" style="fill:#181515;opacity:255;"></rect><rect id="5-13" x="128" y="384" width="32" height="32" shape-rendering="crispEdges" style="fill:#2f2121;opacity:255;"></rect><rect id="6-13" x="160" y="384" width="32" height="32" shape-rendering="crispEdges" style="fill:#181515;opacity:255;"></rect><rect id="7-13" x="192" y="384" width="32" height="32" shape-rendering="crispEdges" style="fill:#181515;opacity:255;"></rect><rect id="8-13" x="224" y="384" width="32" height="32" shape-rendering="crispEdges" style="fill:#181515;opacity:255;"></rect><rect id="9-13" x="256" y="384" width="32" height="32" shape-rendering="crispEdges" style="fill:#2f2121;opacity:255;"></rect><rect id="10-13" x="288" y="384" width="32" height="32" shape-rendering="crispEdges" style="fill:#181515;opacity:255;"></rect><rect id="11-13" x="320" y="384" width="32" height="32" shape-rendering="crispEdges" style="fill:#181515;opacity:255;"></rect><rect id="12-13" x="352" y="384" width="32" height="32" shape-rendering="crispEdges" style="fill:#181515;opacity:255;"></rect><rect id="13-13" x="384" y="384" width="32" height="32" shape-rendering="crispEdges" style="fill:#181515;opacity:255;"></rect><rect id="14-13" x="416" y="384" width="32" height="32" shape-rendering="crispEdges" style="fill:#181515;opacity:255;"></rect><rect id="15-13" x="448" y="384" width="32" height="32" shape-rendering="crispEdges" style="fill:#2f2121;opacity:255;"></rect><rect id="3-14" x="64" y="416" width="32" height="32" shape-rendering="crispEdges" style="fill:#2f2121;opacity:255;"></rect><rect id="4-14" x="96" y="416" width="32" height="32" shape-rendering="crispEdges" style="fill:#181515;opacity:255;"></rect><rect id="5-14" x="128" y="416" width="32" height="32" shape-rendering="crispEdges" style="fill:#181515;opacity:255;"></rect><rect id="6-14" x="160" y="416" width="32" height="32" shape-rendering="crispEdges" style="fill:#2f2121;opacity:255;"></rect><rect id="7-14" x="192" y="416" width="32" height="32" shape-rendering="crispEdges" style="fill:#181515;opacity:255;"></rect><rect id="8-14" x="224" y="416" width="32" height="32" shape-rendering="crispEdges" style="fill:#181515;opacity:255;"></rect><rect id="9-14" x="256" y="416" width="32" height="32" shape-rendering="crispEdges" style="fill:#181515;opacity:255;"></rect><rect id="10-14" x="288" y="416" width="32" height="32" shape-rendering="crispEdges" style="fill:#181515;opacity:255;"></rect><rect id="11-14" x="320" y="416" width="32" height="32" shape-rendering="crispEdges" style="fill:#181515;opacity:255;"></rect><rect id="12-14" x="352" y="416" width="32" height="32" shape-rendering="crispEdges" style="fill:#2f2121;opacity:255;"></rect><rect id="13-14" x="384" y="416" width="32" height="32" shape-rendering="crispEdges" style="fill:#181515;opacity:255;"></rect><rect id="14-14" x="416" y="416" width="32" height="32" shape-rendering="crispEdges" style="fill:#2f2121;opacity:255;"></rect><rect id="4-15" x="96" y="448" width="32" height="32" shape-rendering="crispEdges" style="fill:#181515;opacity:255;"></rect><rect id="5-15" x="128" y="448" width="32" height="32" shape-rendering="crispEdges" style="fill:#181515;opacity:255;"></rect><rect id="6-15" x="160" y="448" width="32" height="32" shape-rendering="crispEdges" style="fill:#181515;opacity:255;"></rect><rect id="7-15" x="192" y="448" width="32" height="32" shape-rendering="crispEdges" style="fill:#181515;opacity:255;"></rect><rect id="8-15" x="224" y="448" width="32" height="32" shape-rendering="crispEdges" style="fill:#181515;opacity:255;"></rect><rect id="9-15" x="256" y="448" width="32" height="32" shape-rendering="crispEdges" style="fill:#181515;opacity:255;"></rect><rect id="10-15" x="288" y="448" width="32" height="32" shape-rendering="crispEdges" style="fill:#181515;opacity:255;"></rect><rect id="11-15" x="320" y="448" width="32" height="32" shape-rendering="crispEdges" style="fill:#2f2121;opacity:255;"></rect><rect id="12-15" x="352" y="448" width="32" height="32" shape-rendering="crispEdges" style="fill:#181515;opacity:255;"></rect><rect id="13-15" x="384" y="448" width="32" height="32" shape-rendering="crispEdges" style="fill:#181515;opacity:255;"></rect><rect id="6-16" x="160" y="480" width="32" height="32" shape-rendering="crispEdges" style="fill:#4a3235;opacity:255;"></rect><rect id="7-16" x="192" y="480" width="32" height="32" shape-rendering="crispEdges" style="fill:#181515;opacity:255;"></rect><rect id="8-16" x="224" y="480" width="32" height="32" shape-rendering="crispEdges" style="fill:#4a3235;opacity:255;"></rect><rect id="9-16" x="256" y="480" width="32" height="32" shape-rendering="crispEdges" style="fill:#181515;opacity:255;"></rect><rect id="10-16" x="288" y="480" width="32" height="32" shape-rendering="crispEdges" style="fill:#181515;opacity:255;"></rect><rect id="11-16" x="320" y="480" width="32" height="32" shape-rendering="crispEdges" style="fill:#4a3235;opacity:255;"></rect></svg>